Simulation
nRows=15
nColumns=15
endheader
time  TH_x TH_y TH_z SC_y  SC_z  SC_x  AC_y  AC_z  AC_x  GH_y  GH_z  GH_yy  EL_x  PS_y
5.382082397003745  0.000000  0.000000  0.000000  -35.38541527714456  12.145954598378603  19.90846630181813  55.019145275874344  17.9049750575814  14.013797019278954  -0.8521708283375323  59.983940945367166  3.9980394098438614  13.469229434595341  120.000000
5.422247191011236  0.000000  0.000000  0.000000  -35.327274053683105  12.033508895930106  19.952085084336048  55.019536430597505  17.84384001394801  13.777282129629231  -0.6917898754744498  60.00136942718525  3.7616890437407364  13.489684295658073  120.000000
5.4624119850187265  0.000000  0.000000  0.000000  -35.12699158975481  11.902603033349289  19.84585107838965  54.99166927672675  17.768579064365102  13.445082887659856  -0.49962764665076664  59.7643177977895  3.6071248253426913  13.429657712317734  120.000000
5.502576779026217  0.000000  0.000000  0.000000  -34.784323033201204  11.751956781532659  19.58480261087418  54.94045619109673  17.67681211436561  13.0166348119572  -0.27862880903774456  59.25457870507861  3.522261137471537  13.305412707019675  120.000000
5.542741573033708  0.000000  0.000000  0.000000  -34.30279999886628  11.578682950561364  19.16662470110094  54.87175347008657  17.565937582263246  12.494058999701373  -0.03301538281990092  58.45710720322835  3.491743654479334  13.139284869264118  120.000000
5.582906367041199  0.000000  0.000000  0.000000  -33.69057508128184  11.378525180098674  18.591802356829177  54.79170865726047  17.432980678505142  11.882170930759488  0.23305526155583467  57.36251689171814  3.4996909367752207  12.955602910168384  120.000000
5.623071161048689  0.000000  0.000000  0.000000  -32.96089924456659  11.146160102463064  17.863934455787344  54.705941041866254  17.274583153877483  11.188591957167212  0.5170319200816862  55.96928961345834  3.5324005820382895  12.776560475976456  120.000000
5.66323595505618  0.000000  0.000000  0.000000  -32.13202607808261  10.87558346137725  16.990026821768797  54.61888227997292  17.087261909407626  10.423846244022902  0.819211883955666  54.285373309472114  3.58054002006842  12.618914630995127  120.000000
5.70340074906367  0.000000  0.000000  0.000000  -31.226522797785883  10.56061244455867  15.98083673198045  54.53339874314874  16.867790491360985  9.601476588136617  1.143446607202457  52.32869828945047  3.640293842325133  12.492248565188499  120.000000
5.743565543071161  0.000000  0.000000  0.000000  -30.270195974863434  10.1955959983794  14.851039423141069  54.450742836047205  16.61370330734112  8.738072473917201  1.4971257909865707  50.12662095156055  3.713358295551707  12.398933815145568  120.000000
5.7837303370786515  0.000000  0.000000  0.000000  -29.2907051625145  9.776321212850045  13.61909100951989  54.37078925930101  16.32403130562658  7.852615533981576  1.8902382091120162  47.7142182621285  3.806254823338432  12.335509095051185  120.000000
5.823895131086142  0.000000  0.000000  0.000000  -28.315842084098236  9.301045324778231  12.306456268913516  54.2929696680314  15.999557236823998  6.965544488350236  2.334465413592938  45.13163003974545  3.9289247593530097  12.294523500731675  120.000000
5.864059925093633  0.000000  0.000000  0.000000  -27.37124176731408  8.770592946577693  10.936291214711217  54.21729737786007  15.642730631939928  6.097854189922399  2.8426200957902457  42.42100966600745  4.092898114562583  12.267046351170201  120.000000
5.904224719101124  0.000000  0.000000  0.000000  -26.479304428780495  8.188586821146757  9.532145753937172  54.14504027700912  15.257421598037208  5.2701769207858264  3.4269599472127723  39.623760726278164  4.3102891319307135  12.244480404079145  120.000000
5.944389513108614  0.000000  0.000000  0.000000  -25.65952860577815  7.56212294420192  8.11695305011487  54.078533808471015  14.84910964823244  4.501209612257472  4.096903872559187  36.778927908600096  4.593473064161102  12.219450254847315  120.000000
